<?xml version="1.0" encoding="utf-8"?>
<!-- Generator: Adobe Illustrator 21.1.0, SVG Export Plug-In . SVG Version: 6.00 Build 0)  -->
<svg version="1.1" id="Layer_1" xmlns="http://www.w3.org/2000/svg" xmlns:xlink="http://www.w3.org/1999/xlink" x="0px" y="0px"
	 viewBox="0 0 98.8 98.8" style="enable-background:new 0 0 98.8 98.8;" xml:space="preserve">
<g>
	<path d="M97.2,1.6c-2.8-2.8-8.4-1.9-12,1.8L64,24.6l-43.7-9.4c-5.4-1-8.7-0.5-13.7,5.5c-4.1,4.9,2.7,7.6,9.7,10.6l28.6,12.5
		c-7.7,8.1-14.4,15.8-19.3,22.2c-0.9,1.2-2.3,1.5-3.5,1.2L7.8,64c-2.8-0.5-4.5-0.3-7.2,2.9c-2.2,2.6,1.4,4,5.1,5.6l12.1,5.1
		c-1,2-1.4,3.6-1.2,4.5c0,0,0,0,0,0.1c0,0,0,0,0.1,0c1,0.2,2.5-0.2,4.5-1.2l5.1,12.1c1.6,3.7,3,7.2,5.6,5.1c3.2-2.6,3.4-4.4,2.9-7.2
		l-3.1-14.2c-0.3-1.1,0-2.6,1.2-3.5c6.4-4.9,14.1-11.5,22.2-19.3l12.5,28.6c3.1,7,5.7,13.8,10.6,9.7c6-5,6.5-8.3,5.5-13.7l-9.4-43.7
		l21.2-21.2C99.1,10,99.9,4.4,97.2,1.6L97.2,1.6z"/>
</g>
</svg>
