<?xml version="1.0" encoding="utf-8"?>
<!-- Generator: Adobe Illustrator 21.1.0, SVG Export Plug-In . SVG Version: 6.00 Build 0)  -->
<svg version="1.1" id="Layer_1" xmlns="http://www.w3.org/2000/svg" xmlns:xlink="http://www.w3.org/1999/xlink" x="0px" y="0px"
	 viewBox="0 0 9 12" style="enable-background:new 0 0 9 12;" xml:space="preserve">
<g transform="scale(1 -1)">
	<g transform="translate(0 -12)">
		<g>
			<g>
				<path marker-start="none" marker-end="none" d="M6.8,0.3v1.6c0,0.2,0.1,0.3,0.3,0.3h0.9c0.2,0,0.3-0.1,0.3-0.3V0.3
					C8.3,0.1,8.1,0,7.9,0H7.1C6.9,0,6.8,0.1,6.8,0.3z"/>
				<path marker-start="none" marker-end="none" d="M0.8,0.3v1.6c0,0.2,0.1,0.3,0.3,0.3h0.9c0.2,0,0.3-0.1,0.3-0.3V0.3
					C2.3,0.1,2.1,0,1.9,0H1.1C0.9,0,0.8,0.1,0.8,0.3z"/>
				<path marker-start="none" marker-end="none" d="M0,2.7v8C0,11.4,0.6,12,1.2,12h6.5C8.4,12,9,11.4,9,10.8v-8
					c0-0.7-0.6-1.2-1.2-1.2H1.2C0.6,1.5,0,2.1,0,2.7z M8.3,3L8.3,3c0,0.4-0.3,0.8-0.8,0.8h0C7.1,3.7,6.8,3.4,6.8,3v0
					c0-0.4,0.3-0.7,0.8-0.7h0C7.9,2.2,8.3,2.6,8.3,3z M2.3,3L2.3,3c0,0.4-0.3,0.8-0.8,0.8h0C1.1,3.7,0.8,3.4,0.8,3v0
					c0-0.4,0.3-0.7,0.8-0.7h0C1.9,2.2,2.3,2.6,2.3,3z M7.5,4.5L7.5,4.5L7.5,4.5c0.4,0,0.8,0.3,0.8,0.7V9c0,0.4-0.3,0.7-0.7,0.7H1.5
					C1.1,9.7,0.8,9.4,0.8,9V5.2c0-0.4,0.3-0.7,0.7-0.7h3v0H7.5z M4.7,5.2c0,0.7,0.6,1.3,1.3,1.3c0.7,0,1.3-0.6,1.3-1.3
					c0-0.1,0-0.2,0-0.3H6.7c0,0.1,0.1,0.2,0.1,0.3C6.8,5.6,6.4,6,6,6C5.6,6,5.2,5.6,5.2,5.2c0-0.1,0-0.2,0.1-0.3H4.7
					C4.7,5,4.7,5.1,4.7,5.2z M8.3,10.9L8.3,10.9c0,0.2-0.2,0.4-0.4,0.4H1.1c-0.2,0-0.4-0.2-0.4-0.4v0c0-0.2,0.2-0.4,0.4-0.4h6.7
					C8.1,10.5,8.3,10.7,8.3,10.9z"/>
			</g>
		</g>
	</g>
</g>
</svg>
