<?xml version="1.0" encoding="utf-8"?>
<!-- Generator: Adobe Illustrator 21.1.0, SVG Export Plug-In . SVG Version: 6.00 Build 0)  -->
<svg version="1.1" id="Layer_1" xmlns="http://www.w3.org/2000/svg" xmlns:xlink="http://www.w3.org/1999/xlink" x="0px" y="0px"
	 viewBox="0 0 67.8 94.9" style="enable-background:new 0 0 67.8 94.9;" xml:space="preserve">
<path d="M67.1,69.3L56.8,55h2.9c2.9,0,4.6-3.3,2.9-5.6L49.8,31.6h1.6c2.9,0,4.6-3.3,2.9-5.6L36.8,1.5c-1.4-2-4.4-2-5.8,0L13.4,25.9
	c-1.7,2.4,0,5.6,2.9,5.6h1.6L5.2,49.4c-1.7,2.4,0,5.6,2.9,5.6H11L0.7,69.3c-1.7,2.4,0,5.6,2.9,5.6h24.9L27.1,91
	c-0.2,2.1,1.5,3.9,3.6,3.9h6.5c2.1,0,3.8-1.8,3.6-3.9l-1.4-16.1h24.9C67.1,74.9,68.8,71.7,67.1,69.3z"/>
</svg>
