<?xml version="1.0" encoding="utf-8"?>
<!-- Generator: Adobe Illustrator 21.1.0, SVG Export Plug-In . SVG Version: 6.00 Build 0)  -->
<svg version="1.1" id="Layer_1" xmlns="http://www.w3.org/2000/svg" xmlns:xlink="http://www.w3.org/1999/xlink" x="0px" y="0px"
	 viewBox="0 0 42 50" style="enable-background:new 0 0 42 50;" xml:space="preserve">
<g>
	<g>
		<polygon points="28.5,38 31.1,34 18.9,34 21.5,38 		"/>
		<path d="M41,0H21c-0.3,0-0.5,0.1-0.7,0.3L14.6,6H42V1C42,0.4,41.6,0,41,0z"/>
		<path d="M8,17.4l-6.6-3.3c-0.5-0.2-1.1,0-1.3,0.4s0,1.1,0.4,1.3L8,19.6v11.8l-6.6-3.3c-0.5-0.2-1.1,0-1.3,0.4s0,1.1,0.4,1.3
			L8,33.6V47c0,0.6,0.4,1,1,1h3v1c0,0.6,0.4,1,1,1s1-0.4,1-1v-1h22v1c0,0.6,0.4,1,1,1s1-0.4,1-1v-1h3c0.6,0,1-0.4,1-1V8H8V17.4z
			 M10,18h30v2h-6.5l-3.7,5.6C29.6,25.8,29.3,26,29,26h-8c-0.3,0-0.6-0.2-0.8-0.4L16.5,20H10V18z M10,32h30v2h-6.5l-3.7,5.6
			C29.6,39.8,29.3,40,29,40h-8c-0.3,0-0.6-0.2-0.8-0.4L16.5,34H10V32z"/>
		<polygon points="28.5,24 31.1,20 18.9,20 21.5,24 		"/>
	</g>
</g>
</svg>
