<?xml version="1.0" encoding="utf-8"?>
<!-- Generator: Adobe Illustrator 21.1.0, SVG Export Plug-In . SVG Version: 6.00 Build 0)  -->
<svg version="1.1" id="Layer_1" xmlns="http://www.w3.org/2000/svg" xmlns:xlink="http://www.w3.org/1999/xlink" x="0px" y="0px"
	 viewBox="0 0 96 96" style="enable-background:new 0 0 96 96;" xml:space="preserve">
<path d="M96,84H12V0H8v84H0v4h8v8h4v-8h84V84z"/>
<path d="M87.9,80c1,0,2-0.4,2.8-1.2c1.6-1.6,1.6-4.1,0-5.7l-16-16c-1.6-1.6-4.1-1.6-5.7,0l-6.9,6.9l-10.4-45
	c-0.3-1.4-1.4-2.5-2.8-2.9c-1.4-0.4-2.9,0-3.9,1L33.5,28.8L23.7,2.6c-0.8-2.1-3.1-3.1-5.2-2.3c-2.1,0.8-3.1,3.1-2.3,5.2l12,32
	c0.5,1.3,1.6,2.2,2.9,2.5c1.3,0.3,2.7-0.1,3.7-1.1l10.9-10.9l10.4,45c0.3,1.4,1.4,2.5,2.8,2.9c1.4,0.4,2.9,0,3.9-1l9.2-9.2
	l13.2,13.2C85.9,79.6,86.9,80,87.9,80L87.9,80z"/>
</svg>
