<?xml version="1.0" encoding="utf-8"?>
<!-- Generator: Adobe Illustrator 21.1.0, SVG Export Plug-In . SVG Version: 6.00 Build 0)  -->
<svg version="1.1" id="Layer_1" xmlns="http://www.w3.org/2000/svg" xmlns:xlink="http://www.w3.org/1999/xlink" x="0px" y="0px"
	 viewBox="0 0 100 100" style="enable-background:new 0 0 100 100;" xml:space="preserve">
<style type="text/css">
	.st0{fill:#231F20;}
</style>
<path class="st0" d="M48.1,44.6c-0.3,0.2-0.6,0.5-0.8,0.7c0,0-0.1,0.1-0.1,0.1c-3.6,3.7-5.9,8.7-5.9,14.3h-3.7c0-3.9,1-7.6,2.6-10.8
	c-1.8-0.7-3.8-1-5.8-1c-6.9,0-12.8,3.9-15.8,9.6c0.4,0,0.8-0.1,1.3-0.1c8.1,0,15.6,4.3,19.8,11.1c0.2,0,0.4,0,0.6,0
	c3.7,0,7.2,1.2,10.2,3.3c0.3-0.2,0.6-0.4,1-0.6c2.4-7.1,9-11.9,16.6-11.9c6.6,0,12.5,3.7,15.5,9.4c0.7-0.1,1.4-0.1,2-0.1
	c5.3,0,10,2.3,13.2,6c0.7-1.7,1.1-3.6,1.1-5.6c0-7.9-6.4-14.4-14.4-14.4c-0.8,0-1.6,0.1-2.4,0.2c-2.6-8.5-10.3-14.8-19.5-15.4v0
	c-0.5,0-1-0.1-1.5-0.1c-0.2,0-0.5,0-0.7,0v0c-0.5,0-1,0-1.4,0.1c-0.1,0-0.2,0-0.3,0c-0.6,0.1-1.2,0.2-1.8,0.3c0,0-0.1,0-0.1,0
	c-0.6,0.1-1.2,0.3-1.8,0.5c-0.2,0.1-0.4,0.1-0.6,0.2c-0.5,0.2-0.9,0.3-1.4,0.5c-0.2,0.1-0.4,0.1-0.5,0.2c-0.5,0.2-0.9,0.4-1.4,0.6
	c-0.2,0.1-0.5,0.2-0.7,0.4c-0.3,0.2-0.6,0.4-0.9,0.6c-0.4,0.2-0.7,0.5-1,0.7c-0.3,0.2-0.5,0.4-0.8,0.6
	C48.5,44.3,48.3,44.4,48.1,44.6z"/>
<circle class="st0" cx="66.3" cy="32.5" r="3.3"/>
<path class="st0" d="M63.3,11c1.8,0,3.3-1.5,3.3-3.3c0-1.8-1.5-3.3-3.3-3.3c-1.8,0-3.3,1.5-3.3,3.3C60,9.5,61.4,11,63.3,11z"/>
<path class="st0" d="M71,15.9c1.8,0,3.3-1.5,3.3-3.3c0-1.8-1.5-3.3-3.3-3.3c-1.8,0-3.3,1.5-3.3,3.3C67.7,14.4,69.2,15.9,71,15.9z"/>
<path class="st0" d="M92,44.8c-1.8,0-3.3,1.5-3.3,3.3c0,1.8,1.5,3.3,3.3,3.3c1.8,0,3.3-1.5,3.3-3.3C95.3,46.2,93.8,44.8,92,44.8z"/>
<path class="st0" d="M96.7,11.2c1.8,0,3.3-1.5,3.3-3.3c0-1.8-1.5-3.3-3.3-3.3c-1.8,0-3.3,1.5-3.3,3.3C93.4,9.7,94.8,11.2,96.7,11.2z
	"/>
<path class="st0" d="M55.8,20c1.8,0,3.3-1.5,3.3-3.3c0-1.8-1.5-3.3-3.3-3.3c-1.8,0-3.3,1.5-3.3,3.3C52.5,18.5,54,20,55.8,20z"/>
<path class="st0" d="M83,22.4c1.8,0,3.3-1.5,3.3-3.3c0-1.8-1.5-3.3-3.3-3.3c-1.8,0-3.3,1.5-3.3,3.3C79.7,20.9,81.2,22.4,83,22.4z"/>
<path class="st0" d="M89.5,37.5c1.8,0,3.3-1.5,3.3-3.3c0-1.8-1.5-3.3-3.3-3.3c-1.8,0-3.3,1.5-3.3,3.3C86.2,36,87.7,37.5,89.5,37.5z"
	/>
<path class="st0" d="M10.5,46c1.8,0,3.3-1.5,3.3-3.3s-1.5-3.3-3.3-3.3c-1.8,0-3.3,1.5-3.3,3.3C7.2,44.5,8.7,46,10.5,46z"/>
<path class="st0" d="M16.7,6.6c1.8,0,3.3-1.5,3.3-3.3C20,1.5,18.5,0,16.7,0c-1.8,0-3.3,1.5-3.3,3.3C13.3,5.1,14.8,6.6,16.7,6.6z"/>
<path class="st0" d="M18.6,22.2c0,1.8,1.5,3.3,3.3,3.3c1.8,0,3.3-1.5,3.3-3.3c0-1.8-1.5-3.3-3.3-3.3C20,18.9,18.6,20.4,18.6,22.2z"
	/>
<circle class="st0" cx="3.3" cy="18.5" r="3.3"/>
<path class="st0" d="M22.7,32.9c-1.8,0-3.3,1.5-3.3,3.3c0,1.8,1.5,3.3,3.3,3.3c1.8,0,3.3-1.5,3.3-3.3C26,34.4,24.5,32.9,22.7,32.9z"
	/>
<path class="st0" d="M42.2,15.3c1.8,0,3.3-1.5,3.3-3.3c0-1.8-1.5-3.3-3.3-3.3c-1.8,0-3.3,1.5-3.3,3.3C38.9,13.8,40.4,15.3,42.2,15.3
	z"/>
<path class="st0" d="M33.1,24.6c1.8,0,3.3-1.5,3.3-3.3c0-1.8-1.5-3.3-3.3-3.3c-1.8,0-3.3,1.5-3.3,3.3C29.8,23.1,31.3,24.6,33.1,24.6
	z"/>
<path class="st0" d="M42.8,30.1c0,1.8,1.5,3.3,3.3,3.3c1.8,0,3.3-1.5,3.3-3.3c0-1.8-1.5-3.3-3.3-3.3C44.3,26.7,42.8,28.2,42.8,30.1z
	"/>
<path class="st0" d="M85.6,72.2c-1.5,0-2.9,0.2-4.3,0.7c-1.7-5.7-7-9.9-13.3-9.9c-6.6,0-12.1,4.6-13.5,10.7c-1.5,0.8-2.9,1.8-4.1,3
	c-2.5-2.7-6.2-4.5-10.2-4.5c-0.9,0-1.8,0.1-2.7,0.3c-3.1-6.7-9.8-11.4-17.7-11.4c-10.7,0-19.4,8.7-19.4,19.4
	c0,10.7,8.7,19.4,19.4,19.4h65.7c7.7,0,13.9-6.2,13.9-13.9C99.5,78.4,93.3,72.2,85.6,72.2z"/>
</svg>
