<?xml version="1.0" encoding="utf-8"?>
<!-- Generator: Adobe Illustrator 21.1.0, SVG Export Plug-In . SVG Version: 6.00 Build 0)  -->
<svg version="1.1" id="Layer_1" xmlns="http://www.w3.org/2000/svg" xmlns:xlink="http://www.w3.org/1999/xlink" x="0px" y="0px"
	 viewBox="0 0 69.7 88.4" style="enable-background:new 0 0 69.7 88.4;" xml:space="preserve">
<path d="M8.2,26.5h4.7c1.7,0,3.1,1.4,3.1,3.1v13.7c0,1.7-1.4,3.1-3.1,3.1H8.2c-1.7,0-3.1-1.4-3.1-3.1V29.6
	C5.1,27.9,6.5,26.5,8.2,26.5z"/>
<path d="M24.6,26.7h4.7c1.7,0,3.1,1.4,3.1,3.1v13.7c0,1.7-1.4,3.1-3.1,3.1h-4.7c-1.7,0-3.1-1.4-3.1-3.1V29.8
	C21.5,28.1,22.9,26.7,24.6,26.7z"/>
<path d="M41,26.5h4.7c1.7,0,3.1,1.4,3.1,3.1v13.7c0,1.7-1.4,3.1-3.1,3.1H41c-1.7,0-3.1-1.4-3.1-3.1V29.6
	C37.9,27.9,39.3,26.5,41,26.5z"/>
<path d="M5,24.3c0.2,0,0.5,0,0.7-0.1v0.1h11.5h8.7h5h10h18.9c5.3,0,9.6-4.4,9.6-9.7c0-5.4-4.3-9.7-9.6-9.7c-1.6,0-3.2,0.4-4.6,1.2
	C53.5,2.4,49.9,0,45.8,0c-4.6,0-8.6,3.1-9.9,7.4c-1.6-1.9-3.9-3-6.5-3c-4.2,0-7.6,3.1-8.4,7.1c-1.4-1.3-3.2-2.1-5.2-2.1
	c-3.5,0-6.5,2.5-7.5,5.9c-0.9-0.8-2-1.4-3.3-1.4c-2.7,0-5,2.4-5,5.3C0,22,2.2,24.3,5,24.3z"/>
<path d="M4.7,48.4h61c2.2,0,4,1.8,4,4v32c0,2.2-1.8,4-4,4h-61c-2.2,0-4-1.8-4-4v-32C0.7,50.2,2.5,48.4,4.7,48.4z"/>
</svg>
