<?xml version="1.0" encoding="utf-8"?>
<!-- Generator: Adobe Illustrator 21.1.0, SVG Export Plug-In . SVG Version: 6.00 Build 0)  -->
<svg version="1.1" id="Layer_1" xmlns="http://www.w3.org/2000/svg" xmlns:xlink="http://www.w3.org/1999/xlink" x="0px" y="0px"
	 viewBox="0 0 100 100" style="enable-background:new 0 0 100 100;" xml:space="preserve">
<path d="M75.4,0c0,0,0.1,32.2,0,48c0,0.4-0.1,0.6-0.4,0.6c-0.1,0-0.2-0.1-0.3-0.2c-3.4-4.6-6.7-9.3-10-14c-0.4-0.7-1.2-0.7-1.6,0
	c-3.4,4.6-6.8,9.2-10.2,13.8c-0.3,0.4-0.7,0.4-1,0c-3.3-4.7-6.6-9.4-10-14c-0.4-0.7-1.2-0.7-1.6,0C37,38.8,33.6,43.4,30.2,48
	c-0.3,0.4-0.7,0.4-1,0c-3.3-4.7-6.7-9.3-10.1-14c-0.4-0.6-1.2-0.7-1.6,0c-3.3,4.5-6.6,9-9.9,13.5c-1,1.5-0.9,2-0.9,2.8
	c0,16.6,0,49.7,0,49.7h87V0H75.4z"/>
</svg>
