<?xml version="1.0" encoding="utf-8"?>
<!-- Generator: Adobe Illustrator 21.1.0, SVG Export Plug-In . SVG Version: 6.00 Build 0)  -->
<svg version="1.1" id="Layer_1" xmlns="http://www.w3.org/2000/svg" xmlns:xlink="http://www.w3.org/1999/xlink" x="0px" y="0px"
	 viewBox="0 0 100 97.8" style="enable-background:new 0 0 100 97.8;" xml:space="preserve">
<path d="M76.5,52.2c4-0.4,10.8-1.1,10.8-10.7c0-1.3,0-1.5,3.6-2c3.2-0.4,9.1-1.2,9.1-8.4c0-2.9-1.4-12.3-19.8-12.3
	c-5.4,0-11.1,2.8-15.5,7.8C63.8,13.7,58,4.5,51.7,0.5c0,0,0,0-0.1,0s-0.1-0.1-0.2-0.1c0,0-0.1,0-0.1-0.1c-0.1,0-0.2-0.1-0.3-0.1
	s-0.2-0.1-0.3-0.1s-0.2,0-0.3-0.1c-0.1,0-0.2,0-0.3,0s-0.2,0-0.3,0s-0.2,0-0.3,0s-0.2,0-0.3,0S49,0,48.9,0.1c-0.1,0-0.2,0.1-0.3,0.1
	s-0.2,0.1-0.3,0.1c0,0-0.1,0-0.1,0.1c-0.1,0-0.1,0.1-0.2,0.1c0,0,0,0-0.1,0c-6.3,3.9-12.1,13.2-13,26.1c-4.4-5-10-7.8-15.5-7.8
	C1.4,18.8,0,28.2,0,31.1c0,7.3,5.9,8,9.1,8.4c3.6,0.5,3.6,0.7,3.6,2c0,9.6,6.8,10.3,10.8,10.7c4.1,0.4,4.8,0.7,4.8,3.4
	c-0.2,0.9-3.5,2.9-5.5,4c-4.2,2.5-9.5,5.6-12.7,10.8c-2.9,4.8-5.4,11.9-3.8,17.5c0.8,2.8,2.5,4.9,5,6.2c1.3,0.6,2.7,0.9,4.1,0.9
	c4.4,0,9-2.5,11.1-3.8c0.8-0.5,3.1-1.9,5.2-3.9c0.9,3,2.4,5.7,4.4,7.9c1.8,2,3.9,2.6,5.9,2.6s3.9-0.6,5.4-1c1-0.3,2.1-0.6,2.6-0.6
	s1.6,0.3,2.6,0.6c1.5,0.5,3.5,1,5.4,1c2,0,4.1-0.6,5.9-2.6c2-2.2,3.5-5,4.4-7.9c2.1,2,4.4,3.4,5.2,3.9c2.1,1.3,6.7,3.8,11.1,3.8
	c1.4,0,2.8-0.3,4.1-0.9c2.5-1.3,4.2-3.4,5-6.2c1.6-5.6-1-12.7-3.9-17.4c-3.2-5.2-8.4-8.3-12.7-10.8c-2-1.2-5.3-3.2-5.5-4
	C71.7,52.9,72.4,52.6,76.5,52.2z M59.8,91.5c-1,1.1-2.5,0.8-5.5-0.1c-1.5-0.4-2.9-0.9-4.3-0.9s-2.8,0.4-4.3,0.9
	c-3,0.9-4.5,1.2-5.5,0.1c-6.2-6.9-5.4-20.7,1.7-28.3l0,0c0.1,0.4,0.2,1.1,0.2,1.9c0,7.7,4.3,10.4,7.9,10.4c3.7,0,7.9-2.7,7.9-10.4
	c0-0.8,0.1-1.4,0.2-1.9l0,0C65.2,70.8,66,84.5,59.8,91.5z M66.1,56.2c0.4,3.6,4,5.8,8.2,8.3c3.9,2.3,8.3,4.9,10.7,8.9
	c2.8,4.6,4.1,9.8,3.3,12.9c-0.4,1.3-1,2.1-2.1,2.7c-1.1,0.5-3.6,0.5-7.4-1.4c-5.1-2.5-8.7-6.3-8.9-7.5c0-0.4-0.1-0.8-0.2-1.1
	c0-7.1-2.5-14.5-7.3-19.7c-2.7-2.9-5.1-2.6-6.3-2.1c-1.4,0.5-3.7,2.3-3.7,7.8c0,2.3-0.6,4.7-2.3,4.7s-2.3-2.4-2.3-4.7
	c0-5.5-2.3-7.3-3.7-7.8c-1.2-0.5-3.6-0.8-6.3,2.1c-4.9,5.2-7.3,12.5-7.3,19.6c-0.1,0.3-0.2,0.7-0.2,1.1c-0.2,1.2-3.8,5-8.9,7.5
	c-3.8,1.9-6.3,2-7.4,1.4s-1.8-1.4-2.1-2.7c-0.9-3.1,0.4-8.3,3.3-12.9c2.4-4,6.9-6.6,10.7-8.9c4.2-2.5,7.8-4.7,8.2-8.3
	c0-0.2,0.1-0.4,0.1-0.6c0-8.1-6.2-8.7-9.9-9.1c-4-0.4-5.7-0.6-5.7-5c0-6.5-5.6-7.2-8.6-7.6C6.1,33.3,5.8,33,5.8,31
	c0-1.5,1-6.6,14.2-6.6c11.7,0,17.9,14.8,17.9,25.5c0,1.6,1.3,2.8,2.8,2.8s2.8-1.3,2.8-2.8c0-4.8-0.8-9.1-2.1-12.9
	C39.1,21.2,44.8,10.5,50,6.3c5.2,4.3,10.9,14.9,8.7,30.8c-1.3,3.8-2.1,8.1-2.1,12.9c0,1.6,1.3,2.8,2.8,2.8s2.8-1.3,2.8-2.8
	c0-10.7,6.2-25.5,17.9-25.5c13.1,0,14.2,5.1,14.2,6.6c0,2-0.3,2.3-4.2,2.8c-3,0.4-8.6,1.1-8.6,7.6c0,4.5-1.7,4.6-5.7,5
	c-3.7,0.4-9.9,1-9.9,9.1C66,55.8,66.1,56,66.1,56.2z"/>
</svg>
