<?xml version="1.0" encoding="utf-8"?>
<!-- Generator: Adobe Illustrator 21.1.0, SVG Export Plug-In . SVG Version: 6.00 Build 0)  -->
<svg version="1.1" id="Layer_1" xmlns="http://www.w3.org/2000/svg" xmlns:xlink="http://www.w3.org/1999/xlink" x="0px" y="0px"
	 viewBox="0 0 17 24" style="enable-background:new 0 0 17 24;" xml:space="preserve">
<g>
	<path d="M10.9,17.7c-1.6,0.4-3.2,0.4-4.9,0c-0.2-0.1-0.4,0-0.5,0.2c-0.1,0.2-0.1,0.4,0,0.6L7,20.7l1,2.9C8.1,23.9,8.3,24,8.5,24
		s0.4-0.1,0.5-0.3l1-2.9l1.5-2.3c0.1-0.2,0.1-0.4,0-0.6C11.3,17.7,11.1,17.6,10.9,17.7z"/>
	<path d="M8.5,0C3.8,0,0,3.8,0,8.5S3.8,17,8.5,17S17,13.2,17,8.5S13.2,0,8.5,0z M3.5,11C3.2,11,3,10.8,3,10.5S3.2,10,3.5,10h0
		C3.8,10,4,10.2,4,10.5S3.8,11,3.5,11z M3.5,8C3.2,8,3,7.8,3,7.5S3.2,7,3.5,7h0C3.8,7,4,7.2,4,7.5S3.8,8,3.5,8z M5.5,13
		C5.2,13,5,12.8,5,12.5S5.2,12,5.5,12h0C5.8,12,6,12.2,6,12.5S5.8,13,5.5,13z M6.5,10C6.2,10,6,9.8,6,9.5S6.2,9,6.5,9h0
		C6.8,9,7,9.2,7,9.5S6.8,10,6.5,10z M8.5,14C8.2,14,8,13.8,8,13.5S8.2,13,8.5,13h0C8.8,13,9,13.2,9,13.5S8.8,14,8.5,14z M9,11
		c-0.3,0-0.5-0.2-0.5-0.5S8.7,10,9,10h0c0.3,0,0.5,0.2,0.5,0.5S9.3,11,9,11z M11.5,13c-0.3,0-0.5-0.2-0.5-0.5s0.2-0.5,0.5-0.5h0
		c0.3,0,0.5,0.2,0.5,0.5S11.8,13,11.5,13z M11.5,10C11.2,10,11,9.8,11,9.5S11.2,9,11.5,9h0C11.8,9,12,9.2,12,9.5S11.8,10,11.5,10z
		 M12.5,5C12.2,5,12,4.8,12,4.5S12.2,4,12.5,4h0C12.8,4,13,4.2,13,4.5S12.8,5,12.5,5z M13.5,11c-0.3,0-0.5-0.2-0.5-0.5
		s0.2-0.5,0.5-0.5h0c0.3,0,0.5,0.2,0.5,0.5S13.8,11,13.5,11z M13.5,8C13.2,8,13,7.8,13,7.5S13.2,7,13.5,7h0C13.8,7,14,7.2,14,7.5
		S13.8,8,13.5,8z"/>
</g>
</svg>
