<?xml version="1.0" encoding="utf-8"?>
<!-- Generator: Adobe Illustrator 21.1.0, SVG Export Plug-In . SVG Version: 6.00 Build 0)  -->
<svg version="1.1" id="Layer_1" xmlns="http://www.w3.org/2000/svg" xmlns:xlink="http://www.w3.org/1999/xlink" x="0px" y="0px"
	 viewBox="0 0 100 100" style="enable-background:new 0 0 100 100;" xml:space="preserve">
<path d="M1.3,44.4v0.1v0.4v21.4v23.2c0,5.8,4.8,10.6,10.7,10.6h8.3h15.5V78.3c0-5.7,2.9-8.6,8.7-8.6h10.3c5.7,0,8.6,2.9,8.6,8.6V100
	h15.6h8.3c5.9,0,10.7-4.8,10.7-10.6V66.3V44.9v-0.4v-0.1c0-3.7,0-2.8,0-2.8v-6c0-3.9-1.7-7.2-5-9.9L58.1,2.3c-3.9-3.1-13.1-3.1-17,0
	L6.2,25.7c-3.3,2.7-5,6-5,9.9l-0.1,7.2"/>
</svg>
