<?xml version="1.0" encoding="utf-8"?>
<!-- Generator: Adobe Illustrator 21.1.0, SVG Export Plug-In . SVG Version: 6.00 Build 0)  -->
<svg version="1.1" id="Layer_1" xmlns="http://www.w3.org/2000/svg" xmlns:xlink="http://www.w3.org/1999/xlink" x="0px" y="0px"
	 viewBox="0 0 6 8.1" style="enable-background:new 0 0 6 8.1;" xml:space="preserve">
<path d="M3,8.1c-1.7,0-3-1.3-3-3C0,4.5,0.2,4,0.5,3.5c0,0,0,0,0-0.1l1.9-3c0.3-0.5,0.8-0.5,1.2,0l1.9,3c0,0,0,0,0,0.1
	C5.8,4,6,4.5,6,5.1C6,6.8,4.7,8.1,3,8.1L3,8.1z M2.7,6L2.7,6C2.3,5.9,2,5.5,2,5.1C2,5,2,4.9,2.1,4.8l0,0c0-0.3-0.1-0.6-0.4-0.7
	s-0.5,0-0.6,0.3c-0.4,1,0.2,2.2,1.2,2.5c0.3,0.2,0.6,0,0.7-0.2C3.1,6.4,2.9,6.1,2.7,6L2.7,6z"/>
</svg>
