<?xml version="1.0" encoding="utf-8"?>
<!-- Generator: Adobe Illustrator 21.1.0, SVG Export Plug-In . SVG Version: 6.00 Build 0)  -->
<svg version="1.1" id="Layer_1" xmlns="http://www.w3.org/2000/svg" xmlns:xlink="http://www.w3.org/1999/xlink" x="0px" y="0px"
	 viewBox="0 0 96 100" style="enable-background:new 0 0 96 100;" xml:space="preserve">
<path d="M93,89.2c-3.8,0-6.9-3.1-6.9-6.9c0-6-4.2-11.1-9.8-12.4V48.2c0-0.9-0.1-1.7-0.3-2.6c2.5,1,4.2,3.5,4.2,6.3
	c0,7,5.7,12.7,12.7,12.7c1.6,0,2.9-1.3,2.9-2.9s-1.3-2.9-2.9-2.9c-3.8,0-6.9-3.1-6.9-6.9c0-7-5.7-12.7-12.7-12.7
	c-0.2,0-0.4,0-0.6,0.1c-1.2-1.3-2.7-2.3-4.3-3v-3.9c0-0.1,0-0.3,0-0.4c0-0.2,0-0.4,0-0.6C74,30.1,78.3,25,78.3,19
	c0-3.8,3.1-6.9,6.9-6.9c1.6,0,2.9-1.3,2.9-2.9s-1.3-2.9-2.9-2.9c-7,0-12.7,5.7-12.7,12.7c0,3.2-2.2,5.9-5.2,6.6
	c-1.6-4.4-4.6-8-8.5-10.4c0-0.1,0-0.2,0-0.3l-0.4-7.5c0-0.7-0.3-1.4-0.8-1.9C56.3,4.3,52,0,48,0s-8.3,4.3-9.6,5.6
	c-0.5,0.5-0.8,1.1-0.8,1.8l-0.5,7.5c0,0.1,0,0.2,0,0.3c-3.9,2.4-6.9,6.1-8.5,10.4c-3-0.7-5.2-3.4-5.2-6.6c0-7-5.7-12.7-12.7-12.7
	c-1.6,0-2.9,1.3-2.9,2.9s1.3,2.9,2.9,2.9c3.8,0,6.9,3.1,6.9,6.9c0,6,4.2,11.1,9.9,12.4c0,0.2,0,0.4,0,0.6c0,0.1,0,0.2,0,0.4v3.9
	c-1.7,0.7-3.1,1.7-4.3,3c-0.2,0-0.4-0.1-0.6-0.1c-7,0-12.7,5.7-12.7,12.7c0,3.8-3.1,6.9-6.9,6.9c-1.6,0-2.9,1.3-2.9,2.9
	s1.3,2.9,2.9,2.9c7,0,12.7-5.7,12.7-12.7c0-2.8,1.7-5.2,4.1-6.3c-0.1,0.8-0.2,1.6-0.2,2.4v22c-5.6,1.3-9.8,6.4-9.8,12.4
	c0,3.8-3.1,6.9-6.9,6.9c-1.6,0-2.9,1.3-2.9,2.9s1.3,2.9,2.9,2.9c7,0,12.7-5.7,12.7-12.7c0-2.9,1.8-5.3,4.3-6.4
	C22,89.6,33.8,100,48,100s25.9-10.4,28.1-24c2.5,1,4.3,3.5,4.3,6.4c0,7,5.7,12.7,12.7,12.7c1.6,0,2.9-1.3,2.9-2.9S94.6,89.2,93,89.2
	z M43.4,8.9c1.7-1.6,3.8-3,4.6-3s2.8,1.4,4.5,3l0.2,3.9c-1.5-0.4-3.1-0.6-4.8-0.6c-1.6,0-3.2,0.2-4.7,0.6L43.4,8.9z M47.9,18
	c8.1,0,14.7,6.6,14.7,14.7v2.6H33.2v-2.6C33.2,24.6,39.8,18,47.9,18z M25.4,71.6V48c0-3.8,3.1-6.8,6.8-6.8H45v52.7
	C33.9,92.5,25.4,83,25.4,71.6z M50.8,93.9V41.2h12.7c3.8,0,6.8,3.1,6.8,7v23.7C70.2,83.2,61.8,92.5,50.8,93.9z"/>
</svg>
