<?xml version="1.0" encoding="utf-8"?>
<!-- Generator: Adobe Illustrator 21.1.0, SVG Export Plug-In . SVG Version: 6.00 Build 0)  -->
<svg version="1.1" id="Layer_1" xmlns="http://www.w3.org/2000/svg" xmlns:xlink="http://www.w3.org/1999/xlink" x="0px" y="0px"
	 viewBox="0 0 86.7 90" style="enable-background:new 0 0 86.7 90;" xml:space="preserve">
<path d="M85,3.1c-1-5.2-4.2-2.8-10.7,0.2c-4.6,2.1-15.8,6.2-31,6.2S17,5.4,12.4,3.3c-6.5-3-9.6-5.4-10.7-0.2C0.8,7.7,0,15,0,24.9
	C0,46.5,7.4,90,43.4,90s43.4-43.5,43.4-65.1C86.7,15,85.9,7.7,85,3.1z M12.4,37c0,0,3.1-9.3,12.4-9.3S37.2,37,37.2,37H12.4z
	 M43.4,68.4C24.7,68.4,18.6,56,18.6,56h49.6C68.2,56,61.9,68.4,43.4,68.4z M49.6,37c0,0,3.1-9.3,12.4-9.3S74.4,37,74.4,37H49.6z"/>
</svg>
