<?xml version="1.0" encoding="utf-8"?>
<!-- Generator: Adobe Illustrator 21.1.0, SVG Export Plug-In . SVG Version: 6.00 Build 0)  -->
<svg version="1.1" id="Layer_1" xmlns="http://www.w3.org/2000/svg" xmlns:xlink="http://www.w3.org/1999/xlink" x="0px" y="0px"
	 viewBox="0 0 27.1 27.1" style="enable-background:new 0 0 27.1 27.1;" xml:space="preserve">
<g transform="translate(-210 -140)">
	<g>
		<path d="M214.3,155.7c-5.9,6-4.4,9.5-3.4,10.5c1,1,4.5,2.5,10.5-3.4c-0.6-1.2-1.7-2.6-3-4C217,157.4,215.6,156.3,214.3,155.7z"/>
		<path d="M229.7,145.4l-5.4-5.4l-3.5,3.5l1.7,5.8c-2.6,1.7-5.3,3.6-7.4,5.6c1.3,0.7,2.8,1.8,4,3.1c1.2,1.2,2.3,2.6,3.1,4
			c2-2.1,3.9-4.8,5.6-7.4l5.8,1.7l3.5-3.5l-5.4-5.4c0.8-1.8,1.3-3,1.1-3.1C232.7,144.1,231.5,144.5,229.7,145.4z M227.9,150.6
			c-1.7,1.7-3.3,2.9-4,2.9c-0.1,0-0.2,0-0.2-0.1c-0.1-0.1-0.1-0.1-0.1-0.2c0-0.7,1.2-2.3,2.9-4c2-2,3.9-3.2,4.2-2.8
			C231.1,146.8,229.9,148.7,227.9,150.6z"/>
	</g>
</g>
</svg>
