<?xml version="1.0" encoding="utf-8"?>
<!-- Generator: Adobe Illustrator 21.1.0, SVG Export Plug-In . SVG Version: 6.00 Build 0)  -->
<svg version="1.1" id="Layer_1" xmlns:sketch="http://www.bohemiancoding.com/sketch/ns"
	 xmlns="http://www.w3.org/2000/svg" xmlns:xlink="http://www.w3.org/1999/xlink" x="0px" y="0px" viewBox="0 0 58 58"
	 style="enable-background:new 0 0 58 58;" xml:space="preserve">
<title>17 - Full Moon (Solid)</title>
<desc>Created with Sketch.</desc>
<g sketch:type="MSPage">
	<g sketch:type="MSLayerGroup">
		<path sketch:type="MSShapeGroup" d="M16.5,3.9C17.2,5.2,18.6,6,20,6c2.2,0,4-1.8,4-4c0-0.2,0-0.3,0-0.5l-0.2-1
			C21,1,18.4,1.9,16,3.1L16.5,3.9"/>
		<path sketch:type="MSShapeGroup" d="M49,16c0,1.7,1.3,3,3,3c0.9,0,1.7-0.4,2.2-1l1-1.2c-0.6-1.3-1.4-2.6-2.2-3.8l-1.7,0.2
			C50,13.3,49,14.5,49,16"/>
		<path sketch:type="MSShapeGroup" d="M55.8,19.2c-1,1.1-2.3,1.8-3.8,1.8c-2.8,0-5-2.2-5-5c0-2.4,1.7-4.5,4.1-4.9l0.6-0.1
			C46.4,4.3,38.2,0,29,0c-1.1,0-2.2,0.1-3.3,0.2l0.2,1.1C26,1.5,26,1.7,26,2c0,3.3-2.7,6-6,6c-2.2,0-4.2-1.2-5.2-3.1L14.2,4
			C5.7,9.1,0,18.4,0,29c0,16,13,29,29,29s29-13,29-29c0-3.6-0.7-7-1.9-10.2L55.8,19.2L55.8,19.2z M7.5,34C5.6,34,4,32.4,4,30.5
			S5.6,27,7.5,27s3.5,1.6,3.5,3.5S9.4,34,7.5,34L7.5,34z M10.5,19C8.6,19,7,17.4,7,15.5S8.6,12,10.5,12s3.5,1.6,3.5,3.5
			S12.4,19,10.5,19L10.5,19z M20,30c-3.3,0-6-2.7-6-6s2.7-6,6-6s6,2.7,6,6S23.3,30,20,30L20,30z M29,6.5C29,4.6,30.6,3,32.5,3
			S36,4.6,36,6.5S34.4,10,32.5,10S29,8.4,29,6.5L29,6.5z M38,21c-2.8,0-5-2.2-5-5s2.2-5,5-5s5,2.2,5,5S40.8,21,38,21L38,21z"/>
	</g>
</g>
</svg>
