<?xml version="1.0" encoding="utf-8"?>
<!-- Generator: Adobe Illustrator 21.1.0, SVG Export Plug-In . SVG Version: 6.00 Build 0)  -->
<svg version="1.1" id="Layer_1" xmlns="http://www.w3.org/2000/svg" xmlns:xlink="http://www.w3.org/1999/xlink" x="0px" y="0px"
	 viewBox="0 0 46.8 45.5" style="enable-background:new 0 0 46.8 45.5;" xml:space="preserve">
<path d="M10,1.8v42c0,0.6,0.4,1,1,1h29c3.3,0,6-2.7,6-6v-37c0-0.6-0.4-1-1-1H11C10.4,0.8,10,1.2,10,1.8z M29,33.8H17
	c-0.6,0-1-0.4-1-1l0,0c0-0.6,0.4-1,1-1h12c0.6,0,1,0.4,1,1l0,0C30,33.4,29.6,33.8,29,33.8z M35,27.8H17c-0.6,0-1-0.4-1-1l0,0
	c0-0.6,0.4-1,1-1h18c0.6,0,1,0.4,1,1l0,0C36,27.4,35.6,27.8,35,27.8z M39,21.8H17c-0.6,0-1-0.4-1-1v-12c0-0.6,0.4-1,1-1h22
	c0.6,0,1,0.4,1,1v12C40,21.4,39.6,21.8,39,21.8z"/>
<g>
	<path d="M10,11.8v30H9c-2.2,0-4-1.8-4-4v-26H10 M12,8.8H3c-0.6,0-1,0.4-1,1v28c0,3.9,3.1,7,7,7h3c0.6,0,1-0.4,1-1v-34
		C13,9.2,12.6,8.8,12,8.8L12,8.8z"/>
</g>
</svg>
