<svg xmlns="http://www.w3.org/2000/svg" xmlns:xlink="http://www.w3.org/1999/xlink" version="1.1" x="0px" y="0px" viewBox="0 0 46 55" style="enable-background:new 0 0 46 44;" xml:space="preserve"><path d="M10,1v42c0,0.6,0.4,1,1,1h29c3.3,0,6-2.7,6-6V1c0-0.6-0.4-1-1-1H11C10.4,0,10,0.4,10,1z M29,33H17  c-0.6,0-1-0.4-1-1v0c0-0.6,0.4-1,1-1h12c0.6,0,1,0.4,1,1v0C30,32.6,29.6,33,29,33z M35,27H17c-0.6,0-1-0.4-1-1v0c0-0.6,0.4-1,1-1h18  c0.6,0,1,0.4,1,1v0C36,26.6,35.6,27,35,27z M39,21H17c-0.6,0-1-0.4-1-1V8c0-0.6,0.4-1,1-1h22c0.6,0,1,0.4,1,1v12  C40,20.6,39.6,21,39,21z"/><g><path d="M10,11v30H9c-2.2,0-4-1.8-4-4V11H10 M12,8H3C2.4,8,2,8.4,2,9v28c0,3.9,3.1,7,7,7h3c0.6,0,1-0.4,1-1V9   C13,8.4,12.6,8,12,8L12,8z"/></g><text x="0" y="59" fill="#000000" font-size="5px" font-weight="bold" font-family="'Helvetica Neue', Helvetica, Arial-Unicode, Arial, Sans-serif">Created by Тимур Минвалеев</text><text x="0" y="64" fill="#000000" font-size="5px" font-weight="bold" font-family="'Helvetica Neue', Helvetica, Arial-Unicode, Arial, Sans-serif">from the Noun Project</text></svg>