<?xml version="1.0" encoding="utf-8"?>
<!-- Generator: Adobe Illustrator 21.1.0, SVG Export Plug-In . SVG Version: 6.00 Build 0)  -->
<svg version="1.1" id="Layer_1" xmlns="http://www.w3.org/2000/svg" xmlns:xlink="http://www.w3.org/1999/xlink" x="0px" y="0px"
	 viewBox="0 0 49.5 54" style="enable-background:new 0 0 49.5 54;" xml:space="preserve">
<title>pantone</title>
<path d="M15,2.2C15,1,14,0,12.8,0h0H2.2C1,0,0,1,0,2.2v0v43.7c0,1.2,1,2.2,2.2,2.2h0h10.7c1.2,0,2.2-1,2.2-2.2v0V2.2H15z M12,27
	c0,0.6-0.5,1.1-1.1,1.1l0,0H4.1C3.5,28.1,3,27.6,3,27l0,0v-1.8c0-0.6,0.5-1.1,1.1-1.1l0,0h6.8c0.6,0,1.1,0.5,1.1,1.1l0,0V27z M12,18
	c0,0.6-0.5,1.1-1.1,1.1l0,0H4.1C3.5,19.1,3,18.6,3,18l0,0v-1.8c0-0.6,0.5-1.1,1.1-1.1l0,0h6.8c0.6,0,1.1,0.5,1.1,1.1l0,0V18z M12,9
	c0,0.6-0.5,1.1-1.1,1.1l0,0H4.1C3.5,10.1,3,9.6,3,9l0,0V7.2c0-0.6,0.5-1.1,1.1-1.1l0,0h6.8c0.6,0,1.1,0.5,1.1,1.1l0,0V9z M49,24.7
	l-6.5-8.6c-0.7-0.9-2.1-1.1-3-0.4L4.9,41.6c-0.9,0.7-1.1,2.1-0.4,3l6.5,8.6c0.7,0.9,2.1,1.1,3,0.4l34.6-25.9
	C49.6,27,49.8,25.6,49,24.7c0-0.1,0-0.1,0-0.1V24.7z M26.7,40c-0.5,0.3-1.1,0.3-1.5-0.2l-3.9-5.2c-0.3-0.5-0.3-1.1,0.2-1.5l1.7-1.3
	c0.5-0.3,1.1-0.3,1.5,0.2l3.9,5.2c0.3,0.5,0.3,1.1-0.2,1.5L26.7,40z M33.6,34.8c-0.5,0.3-1.1,0.3-1.5-0.2l-3.9-5.2
	c-0.3-0.5-0.3-1.1,0.2-1.5l1.7-1.3c0.5-0.3,1.1-0.3,1.5,0.2l3.9,5.2c0.3,0.5,0.3,1.1-0.2,1.5L33.6,34.8z M40.5,29.6
	c-0.5,0.3-1.1,0.3-1.5-0.2l-3.9-5.2c-0.3-0.5-0.3-1.1,0.2-1.5l1.7-1.3c0.5-0.3,1.1-0.3,1.5,0.2l3.9,5.2c0.3,0.5,0.3,1.1-0.2,1.5
	L40.5,29.6z M33.7,8.1L24,3.4c-1.1-0.5-2.4-0.1-2.9,1l-19,38.8c-0.5,1.1-0.1,2.4,1,2.9l9.7,4.7c1.1,0.5,2.4,0.1,2.9-1l19-38.8
	C35.2,9.9,34.8,8.7,33.7,8.1L33.7,8.1z M21,31.9c-0.3,0.5-0.9,0.7-1.4,0.5l-5.8-2.8c-0.5-0.3-0.7-0.9-0.5-1.4l0.9-1.9
	c0.3-0.5,0.9-0.7,1.4-0.5l5.8,2.8c0.5,0.3,0.7,0.9,0.5,1.4L21,31.9z M24.8,24.1c-0.3,0.5-0.9,0.7-1.4,0.5l-5.8-2.8
	c-0.5-0.3-0.7-0.9-0.5-1.4l0.9-1.9c0.3-0.5,0.9-0.7,1.4-0.5l5.8,2.8c0.5,0.3,0.7,0.9,0.5,1.4L24.8,24.1z M28.6,16.3
	c-0.3,0.5-0.9,0.7-1.4,0.5L21.4,14c-0.5-0.3-0.7-0.9-0.5-1.4l0.9-1.9c0.3-0.5,0.9-0.7,1.4-0.5L29,13c0.5,0.3,0.7,0.9,0.5,1.4
	L28.6,16.3z"/>
</svg>
