<?xml version="1.0" encoding="utf-8"?>
<!-- Generator: Adobe Illustrator 21.1.0, SVG Export Plug-In . SVG Version: 6.00 Build 0)  -->
<svg version="1.1" id="Layer_1" xmlns="http://www.w3.org/2000/svg" xmlns:xlink="http://www.w3.org/1999/xlink" x="0px" y="0px"
	 viewBox="0 0 66.8 83.8" style="enable-background:new 0 0 66.8 83.8;" xml:space="preserve">
<g>
	<path d="M59.2,21.2h-8.4c0.8,1.7,1.3,3.6,1.3,5.7v18.8c0,4.2-2,8.1-5.2,10.5v17.1c0.3,3,2.9,5.3,6,5.3h3.3c3.3,0,6-2.7,6-6V52.1
		c2.7-1.1,4.6-3.8,4.6-6.9V28.7C66.7,24.6,63.4,21.2,59.2,21.2z"/>
	<circle cx="54.4" cy="12" r="7"/>
	<path d="M14.7,45.6V26.9c0-2,0.5-3.9,1.3-5.7H7.5c-4.1,0-7.5,3.4-7.5,7.5v16.5c0,3.1,1.9,5.7,4.6,6.9v20.5c0,3.3,2.7,6,6,6h3.3
		c3.3,0,6-2.7,6-6V56.1C16.7,53.6,14.7,49.8,14.7,45.6z"/>
	<circle cx="12.1" cy="12" r="7"/>
	<path d="M47.3,26.9c0-4.7-3.8-8.5-8.5-8.5H28c-4.7,0-8.5,3.8-8.5,8.5v18.8c0,3.5,2.1,6.6,5.2,7.9v23.3c0,3.8,3.1,6.9,6.9,6.9h3.7
		c3.8,0,6.9-3.1,6.9-6.9V53.5c3-1.3,5.2-4.3,5.2-7.9V26.9H47.3z"/>
	<circle cx="33.3" cy="7.9" r="7.9"/>
</g>
</svg>
