<?xml version="1.0" encoding="utf-8"?>
<!-- Generator: Adobe Illustrator 21.1.0, SVG Export Plug-In . SVG Version: 6.00 Build 0)  -->
<svg version="1.1" id="Layer_1" xmlns="http://www.w3.org/2000/svg" xmlns:xlink="http://www.w3.org/1999/xlink" x="0px" y="0px"
	 viewBox="0 0 32 32" style="enable-background:new 0 0 32 32;" xml:space="preserve">
<title>12-Picture</title>
<g>
	<path d="M28,1H8C6.3,1,5,2.3,5,4v1H4C2.3,5,1,6.3,1,8v20c0,1.7,1.3,3,3,3h20c1.7,0,3-1.3,3-3v-1h1c1.7,0,3-1.3,3-3V4
		C31,2.3,29.7,1,28,1z M25,21.6l-4.3-4.3c-0.4-0.4-1-0.4-1.4,0L15,21.6l-4.3-4.3c-0.4-0.4-1-0.4-1.4,0L3,23.6V8c0-0.6,0.4-1,1-1h20
		c0.6,0,1,0.4,1,1V21.6z M29,24c0,0.6-0.4,1-1,1h-1V8c0-1.7-1.3-3-3-3H7V4c0-0.6,0.4-1,1-1h20c0.6,0,1,0.4,1,1V24z"/>
	<path d="M15,10c-1.7,0-3,1.3-3,3s1.3,3,3,3s3-1.3,3-3S16.7,10,15,10z M15,14c-0.6,0-1-0.4-1-1s0.4-1,1-1s1,0.4,1,1S15.6,14,15,14z"
		/>
</g>
</svg>
