<?xml version="1.0" encoding="utf-8"?>
<!-- Generator: Adobe Illustrator 21.1.0, SVG Export Plug-In . SVG Version: 6.00 Build 0)  -->
<svg version="1.1" id="Layer_1" xmlns="http://www.w3.org/2000/svg" xmlns:xlink="http://www.w3.org/1999/xlink" x="0px" y="0px"
	 viewBox="0 0 14 24.1" style="enable-background:new 0 0 14 24.1;" xml:space="preserve">
<title>7 -Rose- (Solid)</title>
<desc>Created with Sketch.</desc>
<g>
	<g>
		<path d="M4,6.7V2.6c1,0.6,1.9,1.2,2.6,1.8c0,0.1-0.1,0.1-0.1,0.2C6.4,4.7,6.3,4.9,6.2,5C6.1,5.2,6,5.3,6,5.5
			C5.9,5.6,5.8,5.8,5.7,5.9c0,0.1-0.1,0.2-0.1,0.3C5.5,6.4,5.5,6.6,5.4,6.9c0,0.1,0,0.1,0,0.2c0,0.3-0.1,0.5-0.1,0.8
			c0,0.3,0,0.6,0.1,0.8c0,0.1,0,0.1,0,0.2c0,0.1,0,0.1,0,0.2C4.6,8.5,4,7.7,4,6.7 M13.5,0.2c-0.3-0.2-0.6-0.2-1-0.1
			C10.7,0.9,9.2,1.9,8,3c-1.2-1-2.7-2-4.6-2.9C3.1-0.1,2.7,0,2.5,0.2S2,0.7,2,1v5.7c0,2.6,2.3,4.7,5,4.8v3.2c-1.1-1-2.9-1.7-5.4-1.7
			c-0.6,0-1,0.4-1,1c0,3,1.2,6.6,6.4,7v2c0,0.6,0.4,1,1,1s1-0.4,1-1V11.5c2.7-0.1,5-2.2,5-4.8V1C14,0.7,13.8,0.3,13.5,0.2"/>
	</g>
</g>
</svg>
