<?xml version="1.0" encoding="utf-8"?>
<!-- Generator: Adobe Illustrator 21.1.0, SVG Export Plug-In . SVG Version: 6.00 Build 0)  -->
<svg version="1.1" id="Layer_1" xmlns="http://www.w3.org/2000/svg" xmlns:xlink="http://www.w3.org/1999/xlink" x="0px" y="0px"
	 viewBox="0 0 93.5 95" style="enable-background:new 0 0 93.5 95;" xml:space="preserve">
<path d="M47,2C22.3,2,2.2,22.1,2,46.7c-0.1,12,4.5,23.4,13,31.9c8.4,8.6,19.7,13.3,31.7,13.4H47c24.7,0,44.8-20.1,45-44.7
	C92.1,22.5,72.1,2.2,47,2z M68.1,35.1c0,1.6-1.3,2.9-2.9,2.9c-1.6,0-2.9-1.3-2.9-2.9v-3.6H49.9V67h3.6c1.6,0,2.9,1.3,2.9,2.9
	s-1.3,2.9-2.9,2.9h-13c-1.6,0-2.9-1.3-2.9-2.9s1.3-2.9,2.9-2.9h3.6V31.5H31.7v3.6c0,1.6-1.3,2.9-2.9,2.9s-2.9-1.3-2.9-2.9v-6.5
	c0-1.6,1.3-2.9,2.9-2.9h36.4c1.6,0,2.9,1.3,2.9,2.9C68.1,28.6,68.1,35.1,68.1,35.1z"/>
</svg>
