<?xml version="1.0" encoding="utf-8"?>
<!-- Generator: Adobe Illustrator 21.1.0, SVG Export Plug-In . SVG Version: 6.00 Build 0)  -->
<svg version="1.1" id="Layer_1" xmlns="http://www.w3.org/2000/svg" xmlns:xlink="http://www.w3.org/1999/xlink" x="0px" y="0px"
	 viewBox="0 0 53.4 95.6" style="enable-background:new 0 0 53.4 95.6;" xml:space="preserve">
<path d="M1.6,40.8C-1.6,44,0,47.2,6.5,53.7c-3.2-3.2,0-8.1,3.2-8.1C8.1,42.4,6.5,37.6,1.6,40.8z M12.9,34.3c-4.8,1.6-3.2,6.5,0,11.3
	c1.6,0,4.8,0,6.5,0c0,0,0-3.2,0-4.8C19.4,37.6,19.4,32.7,12.9,34.3z M22.6,39.2v6.5c4.8,0,14.5,3.2,21,8.1c0-6.5,1.6-12.9,3.2-19.4
	s4.8-17.7,6.5-24.2s-6.5-11.3-9.7-3.2c-1.6,4.8-8.1,30.6-9.7,32.3C32.3,32.7,29,15,27.4,5.3c-1.6-8.1-11.3-6.5-9.7,1.6
	C21,26.3,22.6,32.7,22.6,39.2z M41.9,85.9c4.8-21,8.1-29-12.9-35.5c-6.5-1.6-9.7-1.6-11.3-1.6c-4.8,0-9.7-1.6-9.7,3.2
	s8.1,8.1,14.5,8.1c0,3.2,0,16.1,8.1,21h-4.8c-4.8-4.8-6.5-9.7-6.5-17.7c-1.6,0-11.3-3.2-16.1-9.7c0,9.7,1.6,25.8,6.5,32.3
	c3.2,4.8,3.2,6.5,3.2,9.7h27.4C40.3,92.4,40.3,90.8,41.9,85.9z"/>
</svg>
