<?xml version="1.0" encoding="utf-8"?>
<!-- Generator: Adobe Illustrator 21.1.0, SVG Export Plug-In . SVG Version: 6.00 Build 0)  -->
<svg version="1.1" id="Layer_1" xmlns="http://www.w3.org/2000/svg" xmlns:xlink="http://www.w3.org/1999/xlink" x="0px" y="0px"
	 viewBox="0 0 91 91" style="enable-background:new 0 0 91 91;" xml:space="preserve">
<style type="text/css">
	.st0{display:none;}
	.st1{display:inline;fill:none;stroke:#000000;stroke-miterlimit:10;}
	.st2{stroke:#180F0E;stroke-miterlimit:10;}
</style>
<g class="st0">
	<rect x="0.5" y="0.5" class="st1" width="90" height="90"/>
</g>
<g>
	<path d="M0.5,3.6v83.7c0,1.7,1.4,3.1,3.1,3.1h83.7c1.7,0,3.1-1.4,3.1-3.1V3.6c0-1.7-1.4-3.1-3.1-3.1H3.6C1.9,0.5,0.5,1.9,0.5,3.6z
		 M83.4,18.1c0,0-48.6,52.4-48.9,52.4c-0.4,0-0.4,0-2.9-2.2L8.7,46.4c-1.8-1.7,4.4-8.2,6.2-6.5l17.2,16.4c1.3,1.2,3.3,1.1,4.5-0.2
		L76.7,12C78.4,10.2,85.1,16.2,83.4,18.1z"/>
	<path class="st2" d="M34.5,70.5"/>
	<path class="st2" d="M34.5,58.6"/>
</g>
</svg>
