<?xml version="1.0" encoding="utf-8"?>
<!-- Generator: Adobe Illustrator 21.1.0, SVG Export Plug-In . SVG Version: 6.00 Build 0)  -->
<svg version="1.1" id="Layer_1" xmlns="http://www.w3.org/2000/svg" xmlns:xlink="http://www.w3.org/1999/xlink" x="0px" y="0px"
	 viewBox="0 0 90 66.1" style="enable-background:new 0 0 90 66.1;" xml:space="preserve">
<title>i10</title>
<desc>Created with Sketch.</desc>
<g>
	<path d="M75.7,6.4c-1.8,3.6-4,8-4.3,8.4l7.6-5.7c0.7-0.6,1.1-1.5,0.8-2.4C79.1,4.9,76.6,4.7,75.7,6.4L75.7,6.4z M0.2,41.7L0.2,41.7
		c-0.6,1.9,0.6,3.9,2.5,4.3c3.9,0.9,9.6,2.2,10.2,2.5l-6.9-8C4.3,38.5,0.9,39.2,0.2,41.7L0.2,41.7z M10.5,33.7l26.2,23.2L19.4,26.5
		c-2.2-3.8-7.7-3.9-10-0.2l0,0C8,28.7,8.4,31.8,10.5,33.7L10.5,33.7z M7.8,65.3l29.5,0.2L9.2,56.5c-2.3-0.7-4.8,0.5-5.6,2.8l0,0
		C2.6,62.2,4.8,65.2,7.8,65.3L7.8,65.3z M46.9,10.4l5.9,31.7l11-30.3c1.5-4.2-0.4-8.9-4.4-10.9l0,0C53-2.3,45.6,3.3,46.9,10.4
		L46.9,10.4z M26.2,0.9L26.2,0.9c-4.4,0.5-6.2,5.8-3.2,9l13,13.6c-0.3-1.1-2.6-11.9-3.9-18.4C31.6,2.4,29,0.6,26.2,0.9L26.2,0.9z
		 M89.6,38.1L89.6,38.1c-1.2-2.1-4.3-2.2-5.5,0l-5.3,9.5c0.5-0.3,6.1-3.4,9.5-5.3C89.9,41.5,90.4,39.6,89.6,38.1L89.6,38.1z
		 M35.3,36.3l9.9,14.1c-0.1-1-2.4-11.2-3.6-16.9c-0.4-2-2.5-3.2-4.5-2.6l0,0C34.8,31.7,33.9,34.4,35.3,36.3L35.3,36.3z M75.8,23.1
		L75.8,23.1c-3.2-0.9-6.6,1-7.5,4.2l-8.4,28.9l19.1-23.2C81.7,29.5,80.1,24.3,75.8,23.1L75.8,23.1z M82,53.5
		c2.6-1.4,5.8-0.2,6.8,2.5l0,0c1.1,2.9-0.8,6.1-3.9,6.5l-26.3,3.5L82,53.5z"/>
</g>
</svg>
